<?xml version="1.0" encoding="utf-8"?>
<!-- Generator: Adobe Illustrator 22.1.0, SVG Export Plug-In . SVG Version: 6.00 Build 0)  -->
<svg version="1.1" id="Layer_1" xmlns="http://www.w3.org/2000/svg" xmlns:xlink="http://www.w3.org/1999/xlink" x="0px" y="0px"
	 viewBox="0 0 96 96" style="enable-background:new 0 0 96 96;" xml:space="preserve">
<style type="text/css">
	.st0{fill:none;}
	.st1{fill:#FFFFFF;}
</style>
<polygon class="st0" points="33.5,8.7 29.1,16 29.1,8.7 "/>
<polygon class="st0" points="81.5,8.7 77.1,16 77.1,8.7 "/>
<rect x="34.9" y="39.3" class="st1" width="11.6" height="11.6"/>
<rect x="49.5" y="39.3" class="st1" width="11.6" height="11.6"/>
<rect x="64" y="39.3" class="st1" width="11.6" height="11.6"/>
<rect x="20.4" y="53.8" class="st1" width="11.6" height="11.6"/>
<rect x="34.9" y="53.8" class="st1" width="11.6" height="11.6"/>
<rect x="49.5" y="53.8" class="st1" width="11.6" height="11.6"/>
<rect x="64" y="53.8" class="st1" width="11.6" height="11.6"/>
<rect x="49.5" y="68.4" class="st1" width="11.6" height="11.6"/>
<rect x="34.9" y="68.4" class="st1" width="11.6" height="11.6"/>
<rect x="20.4" y="68.4" class="st1" width="11.6" height="11.6"/>
<path class="st1" d="M88.3,8.7h-6.8L77.1,16V0H66.9v8.7H33.5L29.1,16V0H18.9v8.7H7.7c-1.9,0-3.3,1.5-3.3,3.3v80.6
	c0,1.9,1.5,3.3,3.3,3.3h80.6c1.9,0,3.3-1.5,3.3-3.3V12.1C91.6,10.2,90.2,8.7,88.3,8.7z M81.5,87.3h-67V30.5h8.7h49.5h8.7v56.8H81.5z
	"/>
</svg>
