<?xml version="1.0" encoding="utf-8"?>
<!-- Generator: Adobe Illustrator 22.1.0, SVG Export Plug-In . SVG Version: 6.00 Build 0)  -->
<!DOCTYPE svg PUBLIC "-//W3C//DTD SVG 1.1//EN" "http://www.w3.org/Graphics/SVG/1.1/DTD/svg11.dtd" [
	<!ENTITY st0 "clip-path:url(#SVGID_2_);">
	<!ENTITY st1 "fill:none;">
]>
<svg version="1.1" id="Layer_1" xmlns="http://www.w3.org/2000/svg" xmlns:xlink="http://www.w3.org/1999/xlink" x="0px" y="0px"
	 viewBox="0 0 2000 605" style="enable-background:new 0 0 2000 605;" xml:space="preserve">
<g>
	<defs>
		<rect id="SVGID_1_" width="2000" height="605"/>
	</defs>
	<clipPath id="SVGID_2_">
		<use xlink:href="#SVGID_1_"  style="overflow:visible;"/>
	</clipPath>
	<g style="&st0;">
		<path d="M2000.5,573.5h-497.6c2,10.3,3.1,20.8,3.1,31.5l-0.5-0.5H-0.5v-475L0,130c205.3,0,372.4,118.2,380.7,266.5h469.7L1041,332
			c114.6,0,219.4,24.3,300.3,64.5h659.2V573.5z"/>
		<g>
			<g>
				
					<rect x="1958.1" y="267.7" transform="matrix(0.9912 -0.1327 0.1327 0.9912 -42.1818 272.794)" style="&st1;" width="134.4" height="370.2"/>
				<path d="M2049.9,636.3c-18.4,2.5-36-2.8-49.7-13.2c-13.7-10.4-23.4-26.1-25.8-44.5l-27.8-207.7c-2.7-20,3.7-39.1,16.1-53.2
					l-13.4-41.5c6.7,12.8,26.1,20.9,49.2,20.2c1.9-0.5,3.9-0.8,5.9-1.1c18.4-2.5,36,2.8,49.7,13.2c13.7,10.4,23.4,26.1,25.8,44.5
					l27.8,207.7C2112.5,597.6,2086.7,631.4,2049.9,636.3z"/>
			</g>
			<g>
				
					<rect x="1880.1" y="307" transform="matrix(0.2377 -0.9713 0.9713 0.2377 1079.0913 2149.9651)" style="&st1;" width="58.5" height="161"/>
				<path d="M1987.5,406.6c-1.9,7.8-6.8,14.2-13.2,18c-6.4,3.9-14.3,5.3-22.1,3.4l-88.5-21.7c-8.5-2.1-15.2-7.7-19-14.9l-18.9-1.1
					c6.2-0.7,12.6-7.3,16-16.7c0.1-0.9,0.3-1.7,0.5-2.6c1.9-7.8,6.8-14.2,13.2-18c6.4-3.9,14.3-5.3,22.1-3.4l88.5,21.7
					C1981.7,375.1,1991.3,390.9,1987.5,406.6z"/>
			</g>
			<g>
				
					<rect x="1673.3" y="232.5" transform="matrix(0.2505 -0.9681 0.9681 0.2505 926.7894 1955.8683)" style="&st1;" width="106.6" height="293.6"/>
				<path d="M1868.7,416.2c-3.7,14.3-12.8,25.7-24.6,32.6c-11.8,6.9-26.2,9.4-40.4,5.7l-160.9-41.6c-15.5-4-27.6-14.4-34.3-27.7
					l-34.5-2.5c11.4-1.1,23.1-13,29.5-30.1c0.2-1.6,0.6-3.1,1-4.6c3.7-14.3,12.8-25.7,24.6-32.6c11.8-6.9,26.2-9.4,40.4-5.7
					l160.9,41.6C1859,358.6,1876.1,387.6,1868.7,416.2z"/>
			</g>
			<g>
				
					<rect x="1428.7" y="320.9" transform="matrix(0.9998 -2.085946e-02 2.085946e-02 0.9998 -7.4319 32.8551)" style="&st1;" width="285" height="103.5"/>
				<path d="M1713.6,369.7c0.3,14.3-5.2,27.3-14.4,36.9c-9.2,9.6-22,15.6-36.3,15.9l-161.3,3.4c-15.5,0.3-29.6-6.2-39.3-16.9
					l-32.9,6.7c10.4-4,18.2-18.2,19.7-35.9c-0.2-1.5-0.3-3-0.3-4.6c-0.3-14.3,5.2-27.3,14.4-36.9c9.2-9.6,22-15.6,36.3-15.9
					l161.3-3.4C1689.4,318.5,1713,341.1,1713.6,369.7z"/>
			</g>
			<g>
				
					<rect x="1242" y="305.8" transform="matrix(0.9752 -0.2215 0.2215 0.9752 -46.0086 320.4685)" style="&st1;" width="328" height="119.1"/>
				<path d="M1565.9,329.1c3.6,16,0.4,32-7.7,44.9c-8.1,12.9-21.2,22.7-37.2,26.3l-181,41.1c-17.4,4-34.8-0.2-48.2-9.9l-35.5,15.2
					c10.8-6.9,16.3-24.7,13.9-45c-0.6-1.7-1-3.4-1.4-5.1c-3.6-16-0.4-32,7.7-44.9c8.1-12.9,21.2-22.7,37.2-26.3l181-41.1
					C1526.7,276.9,1558.6,297,1565.9,329.1z"/>
			</g>
			<g>
				
					<rect x="1204.4" y="269.8" transform="matrix(0.2466 -0.9691 0.9691 0.2466 585.8954 1465.8496)" style="&st1;" width="62.7" height="172.6"/>
				<path d="M1319.4,377.4c-2.1,8.4-7.5,15.1-14.4,19.2c-6.9,4.1-15.3,5.6-23.7,3.4l-94.7-24.1c-9.1-2.3-16.3-8.4-20.2-16.2
					l-20.3-1.4c6.7-0.7,13.6-7.7,17.3-17.8c0.1-0.9,0.3-1.8,0.6-2.7c2.1-8.4,7.5-15.1,14.4-19.2c6.9-4.1,15.3-5.6,23.7-3.4
					l94.7,24.1C1313.5,343.6,1323.6,360.6,1319.4,377.4z"/>
			</g>
			<g>
				
					<rect x="932.3" y="267.8" transform="matrix(1 -7.600467e-03 7.600467e-03 1 -2.4116 8.2178)" style="&st1;" width="295.4" height="107.3"/>
				<path d="M1227.7,320.3c0.1,14.8-5.8,28.3-15.4,38c-9.6,9.8-23,15.9-37.8,16l-167.2,1.3c-16.1,0.1-30.6-6.9-40.5-18l-34.2,6.5
					c10.8-4,19.1-18.6,20.9-36.9c-0.2-1.6-0.2-3.2-0.3-4.8c-0.1-14.8,5.8-28.3,15.4-38c9.6-9.8,23-15.9,37.8-16l167.2-1.3
					C1203.3,266.8,1227.5,290.7,1227.7,320.3z"/>
			</g>
			<g>
				
					<rect x="748.6" y="300.1" transform="matrix(0.9519 -0.3063 0.3063 0.9519 -65.5717 293.0846)" style="&st1;" width="305.3" height="110.9"/>
				<path d="M1046.5,308.8c4.7,14.6,3,29.7-3.5,42.3c-6.5,12.6-17.8,22.8-32.3,27.5l-164.5,52.9c-15.8,5.1-32.3,2.7-45.5-5.3
					l-31.7,17c9.4-7.3,13.1-24.3,9.2-42.9c-0.7-1.5-1.2-3-1.7-4.6c-4.7-14.6-3-29.7,3.5-42.3c6.5-12.6,17.8-22.8,32.3-27.5
					L976.8,273C1005.9,263.6,1037.2,279.6,1046.5,308.8z"/>
			</g>
			<g>
				
					<rect x="573.9" y="317" transform="matrix(0.9999 -1.341389e-02 1.341389e-02 0.9999 -4.9468 9.8265)" style="&st1;" width="312.3" height="113.4"/>
				<path d="M886.2,371.6c0.2,15.7-5.9,29.9-16.1,40.3c-10.1,10.4-24.2,16.9-39.9,17.1l-176.8,2.4c-17,0.2-32.4-7.1-42.9-18.8
					l-36.1,7.1c11.4-4.3,20.1-19.8,21.9-39.2c-0.2-1.7-0.3-3.3-0.3-5c-0.2-15.7,5.9-29.9,16.1-40.3c10.1-10.4,24.2-16.9,39.9-17.1
					l176.8-2.4C860.1,315.2,885.8,340.3,886.2,371.6z"/>
			</g>
			<g>
				
					<rect x="459.7" y="337.3" transform="matrix(0.9898 -0.1425 0.1425 0.9898 -46.944 81.5511)" style="&st1;" width="172.7" height="62.7"/>
				<path d="M631.5,356.3c1.2,8.6-1.1,16.8-5.9,23.2c-4.8,6.4-12.1,11-20.6,12.2l-96.7,13.9c-9.3,1.3-18.3-1.6-24.9-7.2l-19.3,6.5
					c5.9-3.2,9.6-12.3,9.2-23c-0.2-0.9-0.4-1.8-0.5-2.7c-1.2-8.6,1.1-16.8,5.9-23.2c4.8-6.4,12.1-11,20.6-12.2l96.7-13.9
					C613.1,327.3,629,339.2,631.5,356.3z"/>
			</g>
			<g>
				
					<rect x="312.4" y="348.6" transform="matrix(0.9944 -0.1058 0.1058 0.9944 -37.9349 44.2359)" style="&st1;" width="171.2" height="62.2"/>
				<path d="M483.1,370.6c0.9,8.5-1.7,16.6-6.7,22.8c-5,6.2-12.4,10.5-20.9,11.4l-96.4,10.3c-9.3,1-18-2.2-24.4-8.1l-19.3,5.7
					c6-2.9,10-11.8,9.9-22.5c-0.2-0.9-0.3-1.8-0.4-2.7c-0.9-8.5,1.7-16.6,6.7-22.8c5-6.2,12.4-10.5,20.9-11.4l96.4-10.3
					C466,341.2,481.3,353.6,483.1,370.6z"/>
			</g>
			<g>
				
					<rect x="312.7" y="133.1" transform="matrix(0.8975 -0.441 0.441 0.8975 -78.1915 185.0691)" style="&st1;" width="92.7" height="255.2"/>
				<path d="M415.3,375.3c-11.5,5.6-24.2,6.1-35.4,2.3c-11.2-3.8-21-11.9-26.6-23.4l-63.7-129.6c-6.1-12.5-6.1-26.4-1.2-38.3
					L270.5,162c7.2,6.9,21.6,7.9,36.6,2.4c1.2-0.7,2.4-1.4,3.6-2c11.5-5.6,24.2-6.1,35.4-2.3c11.2,3.8,21,11.9,26.6,23.4l63.7,129.6
					C447.7,336.2,438.3,364,415.3,375.3z"/>
			</g>
			<g>
				
					<rect x="138" y="-14.7" transform="matrix(0.6326 -0.7745 0.7745 0.6326 -48.6082 213.4682)" style="&st1;" width="125.4" height="345.4"/>
				<path d="M334.4,267.2c-11,13.4-26.3,21.1-42.3,22.7c-16,1.6-32.5-2.9-46-13.8L94.8,152.4c-14.6-11.9-22.4-29-23-46.4L36.2,86.3
					c12.7,4.5,31.1-2.5,46.4-17.6c1-1.5,2.1-3,3.3-4.5c11-13.4,26.3-21.1,42.3-22.7c16-1.6,32.5,2.9,46,13.8L325.5,179
					C352.3,200.9,356.3,240.4,334.4,267.2z"/>
			</g>
			<g>
				
					<rect x="15.5" y="14.5" transform="matrix(0.2372 -0.9715 0.9715 0.2372 -67.4157 130.6722)" style="&st1;" width="68.1" height="187.4"/>
				<path d="M140.6,130.5c-2.2,9.1-7.9,16.5-15.4,21c-7.4,4.5-16.6,6.2-25.7,4L-3.6,130.3c-9.9-2.4-17.8-9-22.1-17.4l-22-1.3
					c7.3-0.8,14.6-8.5,18.6-19.5c0.1-1,0.3-2,0.6-3c2.2-9.1,7.9-16.5,15.4-21c7.4-4.5,16.6-6.2,25.7-4l103.1,25.2
					C133.8,93.8,145,112.2,140.6,130.5z"/>
			</g>
			<g>
				
					<rect x="-77.9" y="43.7" transform="matrix(0.9971 -7.628048e-02 7.628048e-02 0.9971 -17.3085 -0.2161)" style="&st1;" width="132.7" height="365.6"/>
				<path d="M-25.4,44.2C-7.1,42.8,10,48.9,22.8,60c12.9,11.1,21.6,27,23,45.3l15.8,206.3c1.5,19.9-5.9,38.4-18.8,51.5l10.9,41.6
					c-5.8-13-24.6-22-47.4-22.7c-1.9,0.3-3.9,0.6-5.9,0.7c-18.3,1.4-35.4-4.7-48.3-15.8c-12.9-11.1-21.6-27-23-45.3l-15.8-206.3
					C-89.3,78.9-62,47-25.4,44.2z"/>
			</g>
			<g>
				
					<rect x="-78.8" y="248" transform="matrix(0.9897 -0.1428 0.1428 0.9897 -58.8732 1.3941)" style="&st1;" width="118.2" height="325.4"/>
				<path d="M-43,249.7c16.2-2.3,31.7,2.1,43.8,11.2c12.1,9,20.8,22.7,23.1,38.9L50.3,482c2.5,17.6-2.9,34.4-13.6,46.9l12.2,36.3
					c-6-11.2-23.2-18.1-43.4-17.3c-1.7,0.4-3.4,0.7-5.2,1c-16.2,2.3-31.7-2.1-43.8-11.2c-12.1-9-20.8-22.7-23.1-38.9L-93,316.6
					C-97.7,284.3-75.3,254.3-43,249.7z"/>
			</g>
			<g>
				
					<rect x="-123.5" y="522.5" transform="matrix(8.111235e-02 -0.9967 0.9967 8.111235e-02 -576.9175 493.9121)" style="&st1;" width="205.8" height="74.7"/>
				<path d="M-12.2,457.3C-2,458.1,7,463,13.2,470.3c6.2,7.3,9.6,16.9,8.8,27.2l-9.4,116.1c-0.9,11.2-6.7,20.8-15,27l2.4,24.1
					c-2.1-7.7-11.7-14.4-24.3-16.8c-1.1,0-2.2,0-3.3-0.1C-38,647-47,642.1-53.2,634.8c-6.2-7.3-9.6-16.9-8.8-27.2l9.4-116.1
					C-50.8,470.9-32.8,455.6-12.2,457.3z"/>
			</g>
			<g>
				
					<rect x="-32.2" y="558.4" transform="matrix(0.9928 -0.1201 0.1201 0.9928 -72.8738 18.9009)" style="&st1;" width="305" height="110.7"/>
				<path d="M-31.1,632.1c-1.8-15.2,2.6-29.7,11.4-40.8c8.7-11.2,21.7-19,36.9-20.8l171.4-20.7c16.5-2,32.2,3.5,43.6,13.8l34.3-10.6
					c-10.6,5.4-17.5,21.3-17.1,40.3c0.4,1.6,0.6,3.2,0.8,4.9c1.8,15.2-2.6,29.7-11.4,40.8c-8.7,11.2-21.7,19-36.9,20.8L30.5,680.4
					C0.2,684.1-27.4,662.5-31.1,632.1z"/>
			</g>
			<g>
				
					<rect x="101.2" y="558.1" transform="matrix(0.9736 -0.2282 0.2282 0.9736 -134.8372 80.4737)" style="&st1;" width="358.6" height="130.2"/>
				<path d="M105.9,664.1c-4.1-17.5-0.7-35,8.1-49.2c8.8-14.2,23-25,40.5-29.1l197.6-46.3c19-4.5,38.1-0.1,52.8,10.5l38.7-16.8
					c-11.7,7.6-17.7,27.1-14.8,49.3c0.6,1.8,1.1,3.7,1.6,5.6c4.1,17.5,0.7,35-8.1,49.2c-8.8,14.2-23,25-40.5,29.1l-197.6,46.3
					C149.2,720.9,114.1,699.1,105.9,664.1z"/>
			</g>
			<g>
				
					<rect x="366.2" y="595.3" transform="matrix(0.9991 -4.164577e-02 4.164577e-02 0.9991 -25.8696 19.8782)" style="&st1;" width="196" height="71.2"/>
				<path d="M366.2,634.9c-0.4-9.8,3.2-18.9,9.4-25.6c6.2-6.7,14.9-11.1,24.7-11.5l110.9-4.6c10.7-0.4,20.4,3.9,27.3,11l22.5-5.1
					c-7.1,2.9-12.3,12.8-13,25c0.1,1,0.2,2.1,0.3,3.2c0.4,9.8-3.2,18.9-9.4,25.6c-6.2,6.7-14.9,11.1-24.7,11.5L403.3,669
					C383.6,669.8,367.1,654.6,366.2,634.9z"/>
			</g>
			<g>
				
					<rect x="558.5" y="599.4" transform="matrix(0.9999 -1.075195e-02 1.075195e-02 0.9999 -6.7264 6.919)" style="&st1;" width="163.2" height="59.3"/>
				<path d="M558.5,629.9c-0.1-8.2,3.1-15.6,8.5-21c5.3-5.4,12.7-8.8,20.9-8.9l92.4-1c8.9-0.1,16.9,3.7,22.4,9.9l18.9-3.6
					c-6,2.2-10.5,10.3-11.5,20.4c0.1,0.9,0.1,1.7,0.2,2.6c0.1,8.2-3.1,15.6-8.5,21c-5.3,5.4-12.7,8.8-20.9,8.9l-92.4,1
					C572.1,659.4,558.7,646.3,558.5,629.9z"/>
			</g>
			<g>
				
					<rect x="613.3" y="559.7" transform="matrix(0.9774 -0.2116 0.2116 0.9774 -114.6483 183.3963)" style="&st1;" width="372.5" height="135.3"/>
				<path d="M617.5,666.8c-4-18.3-0.1-36.4,9.2-50.9c9.4-14.6,24.3-25.5,42.5-29.5l206.1-44.6c19.8-4.3,39.5,0.6,54.6,11.8
					l40.5-16.8c-12.3,7.7-18.8,27.9-16.3,51c0.6,1.9,1.1,3.8,1.5,5.8c4,18.3,0.1,36.4-9.2,50.9C937.2,659,922.2,670,904,674
					l-206.1,44.6C661.4,726.5,625.4,703.3,617.5,666.8z"/>
			</g>
			<g>
				
					<rect x="768" y="547.1" transform="matrix(0.9941 -0.1086 0.1086 0.9941 -60.6366 105.6937)" style="&st1;" width="344.4" height="125"/>
				<path d="M769,628.3c-1.9-17.2,3.4-33.5,13.4-45.9c10-12.5,24.8-21.1,42-23l193.8-21.2c18.7-2,36.3,4.4,49.1,16.1l38.9-11.6
					c-12,5.9-20,23.8-19.9,45.3c0.4,1.8,0.7,3.6,0.9,5.5c1.9,17.2-3.4,33.5-13.4,45.9c-10,12.5-24.8,21.1-42,23l-193.8,21.2
					C803.6,687.4,772.7,662.6,769,628.3z"/>
			</g>
			<g>
				
					<rect x="985.3" y="579.4" transform="matrix(0.9743 -0.2253 0.2253 0.9743 -111.6139 263.6733)" style="&st1;" width="227.8" height="82.7"/>
				<path d="M988.2,646.4c-2.6-11.1-0.4-22.2,5.2-31.2c5.6-9,14.6-15.8,25.8-18.4l125.6-29.1c12.1-2.8,24.2,0,33.5,6.8l24.6-10.6
					c-7.5,4.8-11.3,17.2-9.5,31.3c0.4,1.2,0.7,2.3,1,3.5c2.6,11.1,0.4,22.2-5.2,31.2c-5.6,9-14.6,15.8-25.8,18.4l-125.6,29.1
					C1015.6,682.6,993.4,668.7,988.2,646.4z"/>
			</g>
			<g>
				
					<rect x="1189.7" y="456.1" transform="matrix(9.220900e-02 -0.9957 0.9957 9.220900e-02 526.0653 1788.8481)" style="&st1;" width="108.8" height="299.6"/>
				<path d="M1094.9,592.1c1.4-15,8.7-27.9,19.4-36.8c10.7-8.9,24.8-13.7,39.8-12.3l168.9,15.6c16.3,1.5,30.2,10,39.1,22.3l35.1-3.1
					c-11.3,2.9-21.2,16.8-24.8,35.2c0,1.6-0.1,3.2-0.2,4.8c-1.4,15-8.7,27.9-19.4,36.8c-10.7,8.9-24.8,13.7-39.8,12.3l-168.9-15.6
					C1114.2,648.5,1092.2,622,1094.9,592.1z"/>
			</g>
			<g>
				
					<rect x="1353.9" y="533.5" transform="matrix(0.2008 -0.9796 0.9796 0.2008 488.4278 1871.4517)" style="&st1;" width="74.7" height="205.8"/>
				<path d="M1290.4,615.7c2.1-10.1,8-18.4,16-23.7c8-5.3,18-7.5,28.1-5.4l114.1,23.4c11,2.3,19.8,9.1,25,18.2l24.2,0.5
					c-7.9,1.2-15.7,9.9-19.6,22.1c-0.1,1.1-0.3,2.2-0.5,3.3c-2.1,10.1-8,18.4-16,23.7c-8,5.3-18,7.5-28.1,5.4l-114.1-23.4
					C1299.3,655.7,1286.3,635.9,1290.4,615.7z"/>
			</g>
			<g>
				
					<rect x="1446.3" y="539.7" transform="matrix(0.9843 -0.1766 0.1766 0.9843 -77.1605 281.164)" style="&st1;" width="188.9" height="68.6"/>
				<path d="M1447.7,590.7c-1.7-9.3,0.6-18.4,5.6-25.6c5-7.2,12.8-12.5,22.1-14.2l105.2-18.9c10.1-1.8,20,1,27.5,7l20.8-7.8
					c-6.4,3.7-10,13.8-9.2,25.5c0.3,1,0.5,2,0.7,3c1.7,9.3-0.6,18.4-5.6,25.6c-5,7.2-12.8,12.5-22.1,14.2l-105.2,18.9
					C1468.9,621.7,1451.1,609.3,1447.7,590.7z"/>
			</g>
			<g>
				
					<rect x="1642.7" y="426.9" transform="matrix(7.524206e-02 -0.9972 0.9972 7.524206e-02 979.224 2255.0603)" style="&st1;" width="125.4" height="345.3"/>
				<path d="M1533.2,586.6c1.3-17.3,9.5-32.4,21.6-42.8c12.2-10.5,28.3-16.3,45.6-15l194.9,14.7c18.8,1.4,35,11,45.4,24.9l40.4-4.3
					c-13,3.6-24.1,19.8-27.9,41c0,1.9,0,3.7-0.2,5.6c-1.3,17.3-9.5,32.4-21.6,42.8c-12.2,10.5-28.3,16.3-45.6,15L1591,653.8
					C1556.5,651.2,1530.6,621.1,1533.2,586.6z"/>
			</g>
			<g>
				
					<rect x="1807.3" y="465.3" transform="matrix(0.2811 -0.9597 0.9597 0.2811 773.7035 2189.7244)" style="&st1;" width="82.2" height="226.3"/>
				<path d="M1739.8,546.6c3.2-10.9,10.5-19.5,19.7-24.5c9.2-5.1,20.4-6.6,31.3-3.4l122.9,36c11.8,3.5,20.9,11.8,25.7,22.2l26.5,2.8
					c-8.8,0.5-18.1,9.4-23.5,22.5c-0.2,1.2-0.5,2.4-0.9,3.5c-3.2,10.9-10.5,19.5-19.7,24.5c-9.2,5.1-20.4,6.6-31.3,3.4l-122.9-36
					C1745.9,591.2,1733.4,568.4,1739.8,546.6z"/>
			</g>
			<g>
				
					<rect x="1904.5" y="558.9" transform="matrix(0.987 -0.161 0.161 0.987 -69.4838 329.7238)" style="&st1;" width="192" height="69.7"/>
				<path d="M1905.7,609.2c-1.5-9.5,0.9-18.7,6.1-26c5.2-7.2,13.2-12.5,22.7-14l107.3-17.5c10.3-1.7,20.3,1.4,27.8,7.5l21.3-7.6
					c-6.5,3.6-10.4,13.9-9.7,25.8c0.3,1,0.5,2,0.6,3c1.5,9.5-0.9,18.7-6.1,26c-5.2,7.2-13.2,12.5-22.7,14L1945.8,638
					C1926.8,641.1,1908.8,628.2,1905.7,609.2z"/>
			</g>
		</g>
	</g>
</g>
<g>
</g>
<g>
</g>
<g>
</g>
<g>
</g>
<g>
</g>
<g>
</g>
<g>
</g>
<g>
</g>
<g>
</g>
<g>
</g>
<g>
</g>
<g>
</g>
<g>
</g>
<g>
</g>
<g>
</g>
</svg>
