<?xml version="1.0" encoding="utf-8"?>
<!-- Generator: Adobe Illustrator 22.1.0, SVG Export Plug-In . SVG Version: 6.00 Build 0)  -->
<svg version="1.1" xmlns="http://www.w3.org/2000/svg" xmlns:xlink="http://www.w3.org/1999/xlink" x="0px" y="0px"
	 viewBox="0 0 1920 1080" style="enable-background:new 0 0 1920 1080;" xml:space="preserve">
<style type="text/css">
	.Drop_x0020_Shadow{fill:none;}
	.Outer_x0020_Glow_x0020_5_x0020_pt{fill:none;}
	.Blue_x0020_Neon{fill:none;stroke:#8AACDA;stroke-width:7;stroke-linecap:round;stroke-linejoin:round;}
	.Chrome_x0020_Highlight{fill:url(#SVGID_1_);stroke:#FFFFFF;stroke-width:0.3629;stroke-miterlimit:1;}
	.Jive_GS{fill:#FFDD00;}
	.Alyssa_GS{fill:#A6D0E4;}
	.st0{fill:#B23939;}
	.st1{clip-path:url(#SVGID_3_);fill:#FFFF64;}
</style>
<linearGradient id="SVGID_1_" gradientUnits="userSpaceOnUse" x1="0" y1="0" x2="6.123234e-17" y2="-1">
	<stop  offset="0" style="stop-color:#656565"/>
	<stop  offset="0.618" style="stop-color:#1B1B1B"/>
	<stop  offset="0.6292" style="stop-color:#545454"/>
	<stop  offset="0.9831" style="stop-color:#3E3E3E"/>
</linearGradient>
<g id="Layer_1">
	<g>
		<rect class="st0" width="1920" height="1080"/>
	</g>
	<rect class="st0" width="1920" height="1080"/>
</g>
<g id="Layer_3">
	<g>
		<defs>
			<rect id="SVGID_2_" width="1920" height="1080"/>
		</defs>
		<clipPath id="SVGID_3_">
			<use xlink:href="#SVGID_2_"  style="overflow:visible;"/>
		</clipPath>
		<polygon class="st1" points="203.2,228 88.8,228 31.7,327 88.8,426 203.2,426 260.3,327 		"/>
		<polygon class="st1" points="203.2,228 88.8,228 31.7,327 88.8,426 203.2,426 260.3,327 		"/>
		<polygon class="st1" points="406.2,110 291.8,110 234.7,209 291.8,308 406.2,308 463.3,209 		"/>
		<polygon class="st1" points="606.2,232 491.8,232 434.7,331 491.8,430 606.2,430 663.3,331 		"/>
		<polygon class="st1" points="406.2,346 291.8,346 234.7,445 291.8,544 406.2,544 463.3,445 		"/>
		<polygon class="st1" points="203.2,460 88.8,460 31.7,559 88.8,658 203.2,658 260.3,559 		"/>
		<polygon class="st1" points="491.8,890 606.2,890 663.3,791 606.2,692 491.8,692 434.7,791 		"/>
		<polygon class="st1" points="491.8,890 606.2,890 663.3,791 606.2,692 491.8,692 434.7,791 		"/>
		<polygon class="st1" points="288.8,772 403.2,772 460.3,673 403.2,574 288.8,574 231.7,673 		"/>
		<polygon class="st1" points="491.8,658 606.2,658 663.3,559 606.2,460 491.8,460 434.7,559 		"/>
		<polygon class="st1" points="491.8,1354 606.2,1354 663.3,1255 606.2,1156 491.8,1156 434.7,1255 		"/>
		<polygon class="st1" points="491.8,1354 606.2,1354 663.3,1255 606.2,1156 491.8,1156 434.7,1255 		"/>
		<polygon class="st1" points="491.8,1586 606.2,1586 663.3,1487 606.2,1388 491.8,1388 434.7,1487 		"/>
		<polygon class="st1" points="288.8,1236 403.2,1236 460.3,1137 403.2,1038 288.8,1038 231.7,1137 		"/>
		<polygon class="st1" points="491.8,1122 606.2,1122 663.3,1023 606.2,924 491.8,924 434.7,1023 		"/>
		<polygon class="st1" points="810.2,114 695.8,114 638.7,213 695.8,312 810.2,312 867.3,213 		"/>
		<polygon class="st1" points="695.8,772 810.2,772 867.3,673 810.2,574 695.8,574 638.7,673 		"/>
		<polygon class="st1" points="695.8,772 810.2,772 867.3,673 810.2,574 695.8,574 638.7,673 		"/>
		<polygon class="st1" points="695.8,540 810.2,540 867.3,441 810.2,342 695.8,342 638.7,441 		"/>
		<polygon class="st1" points="695.8,1236 810.2,1236 867.3,1137 810.2,1038 695.8,1038 638.7,1137 		"/>
		<polygon class="st1" points="695.8,1236 810.2,1236 867.3,1137 810.2,1038 695.8,1038 638.7,1137 		"/>
		<polygon class="st1" points="695.8,1468 810.2,1468 867.3,1369 810.2,1270 695.8,1270 638.7,1369 		"/>
		<polygon class="st1" points="695.8,1004 810.2,1004 867.3,905 810.2,806 695.8,806 638.7,905 		"/>
		<polygon class="st1" points="203.2,692 88.8,692 31.7,791 88.8,890 203.2,890 260.3,791 		"/>
		<polygon class="st1" points="203.2,692 88.8,692 31.7,791 88.8,890 203.2,890 260.3,791 		"/>
		<polygon class="st1" points="406.2,810 291.8,810 234.7,909 291.8,1008 406.2,1008 463.3,909 		"/>
		<polygon class="st1" points="203.2,924 88.8,924 31.7,1023 88.8,1122 203.2,1122 260.3,1023 		"/>
		<polygon class="st1" points="205.2,1156 90.8,1156 33.7,1255 90.8,1354 205.2,1354 262.3,1255 		"/>
		<polygon class="st1" points="205.2,1156 90.8,1156 33.7,1255 90.8,1354 205.2,1354 262.3,1255 		"/>
		<polygon class="st1" points="408.2,1274 293.8,1274 236.7,1373 293.8,1472 408.2,1472 465.3,1373 		"/>
		<polygon class="st1" points="205.2,1388 90.8,1388 33.7,1487 90.8,1586 205.2,1586 262.3,1487 		"/>
		<polygon class="st1" points="0.2,340 -114.2,340 -171.3,439 -114.2,538 0.2,538 57.3,439 		"/>
		<polygon class="st1" points="0.2,340 -114.2,340 -171.3,439 -114.2,538 0.2,538 57.3,439 		"/>
		<polygon class="st1" points="0.2,572 -114.2,572 -171.3,671 -114.2,770 0.2,770 57.3,671 		"/>
		<polygon class="st1" points="0.2,804 -114.2,804 -171.3,903 -114.2,1002 0.2,1002 57.3,903 		"/>
		<polygon class="st1" points="0.2,804 -114.2,804 -171.3,903 -114.2,1002 0.2,1002 57.3,903 		"/>
		<polygon class="st1" points="0.2,1036 -114.2,1036 -171.3,1135 -114.2,1234 0.2,1234 57.3,1135 		"/>
		<polygon class="st1" points="2.2,1268 -112.2,1268 -169.3,1367 -112.2,1466 2.2,1466 59.3,1367 		"/>
		<polygon class="st1" points="2.2,1268 -112.2,1268 -169.3,1367 -112.2,1466 2.2,1466 59.3,1367 		"/>
		<polygon class="st1" points="2.2,1500 -112.2,1500 -169.3,1599 -112.2,1698 2.2,1698 59.3,1599 		"/>
		<polygon class="st1" points="407.2,110 292.8,110 235.7,209 292.8,308 407.2,308 464.3,209 		"/>
		<polygon class="st1" points="407.2,110 292.8,110 235.7,209 292.8,308 407.2,308 464.3,209 		"/>
		<polygon class="st1" points="610.2,-8 495.8,-8 438.7,91 495.8,190 610.2,190 667.3,91 		"/>
		<polygon class="st1" points="810.2,114 695.8,114 638.7,213 695.8,312 810.2,312 867.3,213 		"/>
		<polygon class="st1" points="610.2,228 495.8,228 438.7,327 495.8,426 610.2,426 667.3,327 		"/>
		<polygon class="st1" points="407.2,342 292.8,342 235.7,441 292.8,540 407.2,540 464.3,441 		"/>
		<polygon class="st1" points="695.8,772 810.2,772 867.3,673 810.2,574 695.8,574 638.7,673 		"/>
		<polygon class="st1" points="695.8,772 810.2,772 867.3,673 810.2,574 695.8,574 638.7,673 		"/>
		<polygon class="st1" points="492.8,654 607.2,654 664.3,555 607.2,456 492.8,456 435.7,555 		"/>
		<polygon class="st1" points="695.8,540 810.2,540 867.3,441 810.2,342 695.8,342 638.7,441 		"/>
		<polygon class="st1" points="695.8,1236 810.2,1236 867.3,1137 810.2,1038 695.8,1038 638.7,1137 		"/>
		<polygon class="st1" points="695.8,1236 810.2,1236 867.3,1137 810.2,1038 695.8,1038 638.7,1137 		"/>
		<polygon class="st1" points="695.8,1468 810.2,1468 867.3,1369 810.2,1270 695.8,1270 638.7,1369 		"/>
		<polygon class="st1" points="492.8,1118 607.2,1118 664.3,1019 607.2,920 492.8,920 435.7,1019 		"/>
		<polygon class="st1" points="695.8,1004 810.2,1004 867.3,905 810.2,806 695.8,806 638.7,905 		"/>
		<polygon class="st1" points="1014.2,-4 899.8,-4 842.7,95 899.8,194 1014.2,194 1071.3,95 		"/>
		<polygon class="st1" points="899.8,654 1014.2,654 1071.3,555 1014.2,456 899.8,456 842.7,555 		"/>
		<polygon class="st1" points="899.8,654 1014.2,654 1071.3,555 1014.2,456 899.8,456 842.7,555 		"/>
		<polygon class="st1" points="899.8,422 1014.2,422 1071.3,323 1014.2,224 899.8,224 842.7,323 		"/>
		<polygon class="st1" points="899.8,1118 1014.2,1118 1071.3,1019 1014.2,920 899.8,920 842.7,1019 		"/>
		<polygon class="st1" points="899.8,1118 1014.2,1118 1071.3,1019 1014.2,920 899.8,920 842.7,1019 		"/>
		<polygon class="st1" points="899.8,1350 1014.2,1350 1071.3,1251 1014.2,1152 899.8,1152 842.7,1251 		"/>
		<polygon class="st1" points="899.8,886 1014.2,886 1071.3,787 1014.2,688 899.8,688 842.7,787 		"/>
		<polygon class="st1" points="407.2,574 292.8,574 235.7,673 292.8,772 407.2,772 464.3,673 		"/>
		<polygon class="st1" points="407.2,574 292.8,574 235.7,673 292.8,772 407.2,772 464.3,673 		"/>
		<polygon class="st1" points="610.2,692 495.8,692 438.7,791 495.8,890 610.2,890 667.3,791 		"/>
		<polygon class="st1" points="407.2,806 292.8,806 235.7,905 292.8,1004 407.2,1004 464.3,905 		"/>
		<polygon class="st1" points="409.2,1038 294.8,1038 237.7,1137 294.8,1236 409.2,1236 466.3,1137 		"/>
		<polygon class="st1" points="409.2,1038 294.8,1038 237.7,1137 294.8,1236 409.2,1236 466.3,1137 		"/>
		<polygon class="st1" points="612.2,1156 497.8,1156 440.7,1255 497.8,1354 612.2,1354 669.3,1255 		"/>
		<polygon class="st1" points="409.2,1270 294.8,1270 237.7,1369 294.8,1468 409.2,1468 466.3,1369 		"/>
		<polygon class="st1" points="611.2,-8 496.8,-8 439.7,91 496.8,190 611.2,190 668.3,91 		"/>
		<polygon class="st1" points="611.2,-8 496.8,-8 439.7,91 496.8,190 611.2,190 668.3,91 		"/>
		<polygon class="st1" points="814.2,-126 699.8,-126 642.7,-27 699.8,72 814.2,72 871.3,-27 		"/>
		<polygon class="st1" points="1014.2,-4 899.8,-4 842.7,95 899.8,194 1014.2,194 1071.3,95 		"/>
		<polygon class="st1" points="814.2,110 699.8,110 642.7,209 699.8,308 814.2,308 871.3,209 		"/>
		<polygon class="st1" points="611.2,224 496.8,224 439.7,323 496.8,422 611.2,422 668.3,323 		"/>
		<polygon class="st1" points="899.8,654 1014.2,654 1071.3,555 1014.2,456 899.8,456 842.7,555 		"/>
		<polygon class="st1" points="899.8,654 1014.2,654 1071.3,555 1014.2,456 899.8,456 842.7,555 		"/>
		<polygon class="st1" points="696.8,536 811.2,536 868.3,437 811.2,338 696.8,338 639.7,437 		"/>
		<polygon class="st1" points="899.8,422 1014.2,422 1071.3,323 1014.2,224 899.8,224 842.7,323 		"/>
		<polygon class="st1" points="899.8,1118 1014.2,1118 1071.3,1019 1014.2,920 899.8,920 842.7,1019 		"/>
		<polygon class="st1" points="899.8,1118 1014.2,1118 1071.3,1019 1014.2,920 899.8,920 842.7,1019 		"/>
		<polygon class="st1" points="899.8,1350 1014.2,1350 1071.3,1251 1014.2,1152 899.8,1152 842.7,1251 		"/>
		<polygon class="st1" points="696.8,1000 811.2,1000 868.3,901 811.2,802 696.8,802 639.7,901 		"/>
		<polygon class="st1" points="899.8,886 1014.2,886 1071.3,787 1014.2,688 899.8,688 842.7,787 		"/>
		<polygon class="st1" points="1218.2,-122 1103.8,-122 1046.7,-23 1103.8,76 1218.2,76 1275.3,-23 		"/>
		<polygon class="st1" points="1103.8,536 1218.2,536 1275.3,437 1218.2,338 1103.8,338 1046.7,437 		"/>
		<polygon class="st1" points="1103.8,536 1218.2,536 1275.3,437 1218.2,338 1103.8,338 1046.7,437 		"/>
		<polygon class="st1" points="1103.8,304 1218.2,304 1275.3,205 1218.2,106 1103.8,106 1046.7,205 		"/>
		<polygon class="st1" points="1103.8,1000 1218.2,1000 1275.3,901 1218.2,802 1103.8,802 1046.7,901 		"/>
		<polygon class="st1" points="1103.8,1000 1218.2,1000 1275.3,901 1218.2,802 1103.8,802 1046.7,901 		"/>
		<polygon class="st1" points="1103.8,1232 1218.2,1232 1275.3,1133 1218.2,1034 1103.8,1034 1046.7,1133 		"/>
		<polygon class="st1" points="1103.8,768 1218.2,768 1275.3,669 1218.2,570 1103.8,570 1046.7,669 		"/>
		<polygon class="st1" points="611.2,456 496.8,456 439.7,555 496.8,654 611.2,654 668.3,555 		"/>
		<polygon class="st1" points="611.2,456 496.8,456 439.7,555 496.8,654 611.2,654 668.3,555 		"/>
		<polygon class="st1" points="814.2,574 699.8,574 642.7,673 699.8,772 814.2,772 871.3,673 		"/>
		<polygon class="st1" points="611.2,688 496.8,688 439.7,787 496.8,886 611.2,886 668.3,787 		"/>
		<polygon class="st1" points="613.2,920 498.8,920 441.7,1019 498.8,1118 613.2,1118 670.3,1019 		"/>
		<polygon class="st1" points="613.2,920 498.8,920 441.7,1019 498.8,1118 613.2,1118 670.3,1019 		"/>
		<polygon class="st1" points="816.2,1038 701.8,1038 644.7,1137 701.8,1236 816.2,1236 873.3,1137 		"/>
		<polygon class="st1" points="613.2,1152 498.8,1152 441.7,1251 498.8,1350 613.2,1350 670.3,1251 		"/>
		<polygon class="st1" points="815.2,-126 700.8,-126 643.7,-27 700.8,72 815.2,72 872.3,-27 		"/>
		<polygon class="st1" points="815.2,-126 700.8,-126 643.7,-27 700.8,72 815.2,72 872.3,-27 		"/>
		<polygon class="st1" points="1018.2,-244 903.8,-244 846.7,-145 903.8,-46 1018.2,-46 1075.3,-145 		"/>
		<polygon class="st1" points="1218.2,-122 1103.8,-122 1046.7,-23 1103.8,76 1218.2,76 1275.3,-23 		"/>
		<polygon class="st1" points="1018.2,-8 903.8,-8 846.7,91 903.8,190 1018.2,190 1075.3,91 		"/>
		<polygon class="st1" points="815.2,106 700.8,106 643.7,205 700.8,304 815.2,304 872.3,205 		"/>
		<polygon class="st1" points="1103.8,536 1218.2,536 1275.3,437 1218.2,338 1103.8,338 1046.7,437 		"/>
		<polygon class="st1" points="1103.8,536 1218.2,536 1275.3,437 1218.2,338 1103.8,338 1046.7,437 		"/>
		<polygon class="st1" points="900.8,418 1015.2,418 1072.3,319 1015.2,220 900.8,220 843.7,319 		"/>
		<polygon class="st1" points="1103.8,304 1218.2,304 1275.3,205 1218.2,106 1103.8,106 1046.7,205 		"/>
		<polygon class="st1" points="1103.8,1000 1218.2,1000 1275.3,901 1218.2,802 1103.8,802 1046.7,901 		"/>
		<polygon class="st1" points="1103.8,1000 1218.2,1000 1275.3,901 1218.2,802 1103.8,802 1046.7,901 		"/>
		<polygon class="st1" points="1103.8,1232 1218.2,1232 1275.3,1133 1218.2,1034 1103.8,1034 1046.7,1133 		"/>
		<polygon class="st1" points="900.8,882 1015.2,882 1072.3,783 1015.2,684 900.8,684 843.7,783 		"/>
		<polygon class="st1" points="1103.8,768 1218.2,768 1275.3,669 1218.2,570 1103.8,570 1046.7,669 		"/>
		<polygon class="st1" points="1422.2,-240 1307.8,-240 1250.7,-141 1307.8,-42 1422.2,-42 1479.3,-141 		"/>
		<polygon class="st1" points="1307.8,418 1422.2,418 1479.3,319 1422.2,220 1307.8,220 1250.7,319 		"/>
		<polygon class="st1" points="1307.8,418 1422.2,418 1479.3,319 1422.2,220 1307.8,220 1250.7,319 		"/>
		<polygon class="st1" points="1307.8,186 1422.2,186 1479.3,87 1422.2,-12 1307.8,-12 1250.7,87 		"/>
		<polygon class="st1" points="1307.8,882 1422.2,882 1479.3,783 1422.2,684 1307.8,684 1250.7,783 		"/>
		<polygon class="st1" points="1307.8,882 1422.2,882 1479.3,783 1422.2,684 1307.8,684 1250.7,783 		"/>
		<polygon class="st1" points="1307.8,1114 1422.2,1114 1479.3,1015 1422.2,916 1307.8,916 1250.7,1015 		"/>
		<polygon class="st1" points="1307.8,650 1422.2,650 1479.3,551 1422.2,452 1307.8,452 1250.7,551 		"/>
		<polygon class="st1" points="815.2,338 700.8,338 643.7,437 700.8,536 815.2,536 872.3,437 		"/>
		<polygon class="st1" points="815.2,338 700.8,338 643.7,437 700.8,536 815.2,536 872.3,437 		"/>
		<polygon class="st1" points="1018.2,456 903.8,456 846.7,555 903.8,654 1018.2,654 1075.3,555 		"/>
		<polygon class="st1" points="815.2,570 700.8,570 643.7,669 700.8,768 815.2,768 872.3,669 		"/>
		<polygon class="st1" points="817.2,802 702.8,802 645.7,901 702.8,1000 817.2,1000 874.3,901 		"/>
		<polygon class="st1" points="817.2,802 702.8,802 645.7,901 702.8,1000 817.2,1000 874.3,901 		"/>
		<polygon class="st1" points="1020.2,920 905.8,920 848.7,1019 905.8,1118 1020.2,1118 1077.3,1019 		"/>
		<polygon class="st1" points="817.2,1034 702.8,1034 645.7,1133 702.8,1232 817.2,1232 874.3,1133 		"/>
		<polygon class="st1" points="1019.2,-244 904.8,-244 847.7,-145 904.8,-46 1019.2,-46 1076.3,-145 		"/>
		<polygon class="st1" points="1019.2,-244 904.8,-244 847.7,-145 904.8,-46 1019.2,-46 1076.3,-145 		"/>
		<polygon class="st1" points="1222.2,-362 1107.8,-362 1050.7,-263 1107.8,-164 1222.2,-164 1279.3,-263 		"/>
		<polygon class="st1" points="1422.2,-240 1307.8,-240 1250.7,-141 1307.8,-42 1422.2,-42 1479.3,-141 		"/>
		<polygon class="st1" points="1222.2,-126 1107.8,-126 1050.7,-27 1107.8,72 1222.2,72 1279.3,-27 		"/>
		<polygon class="st1" points="1019.2,-12 904.8,-12 847.7,87 904.8,186 1019.2,186 1076.3,87 		"/>
		<polygon class="st1" points="1307.8,418 1422.2,418 1479.3,319 1422.2,220 1307.8,220 1250.7,319 		"/>
		<polygon class="st1" points="1307.8,418 1422.2,418 1479.3,319 1422.2,220 1307.8,220 1250.7,319 		"/>
		<polygon class="st1" points="1104.8,300 1219.2,300 1276.3,201 1219.2,102 1104.8,102 1047.7,201 		"/>
		<polygon class="st1" points="1307.8,186 1422.2,186 1479.3,87 1422.2,-12 1307.8,-12 1250.7,87 		"/>
		<polygon class="st1" points="1307.8,882 1422.2,882 1479.3,783 1422.2,684 1307.8,684 1250.7,783 		"/>
		<polygon class="st1" points="1307.8,882 1422.2,882 1479.3,783 1422.2,684 1307.8,684 1250.7,783 		"/>
		<polygon class="st1" points="1307.8,1114 1422.2,1114 1479.3,1015 1422.2,916 1307.8,916 1250.7,1015 		"/>
		<polygon class="st1" points="1104.8,764 1219.2,764 1276.3,665 1219.2,566 1104.8,566 1047.7,665 		"/>
		<polygon class="st1" points="1307.8,650 1422.2,650 1479.3,551 1422.2,452 1307.8,452 1250.7,551 		"/>
		<polygon class="st1" points="1626.2,-358 1511.8,-358 1454.7,-259 1511.8,-160 1626.2,-160 1683.3,-259 		"/>
		<polygon class="st1" points="1511.8,300 1626.2,300 1683.3,201 1626.2,102 1511.8,102 1454.7,201 		"/>
		<polygon class="st1" points="1511.8,300 1626.2,300 1683.3,201 1626.2,102 1511.8,102 1454.7,201 		"/>
		<polygon class="st1" points="1511.8,68 1626.2,68 1683.3,-31 1626.2,-130 1511.8,-130 1454.7,-31 		"/>
		<polygon class="st1" points="1511.8,764 1626.2,764 1683.3,665 1626.2,566 1511.8,566 1454.7,665 		"/>
		<polygon class="st1" points="1511.8,764 1626.2,764 1683.3,665 1626.2,566 1511.8,566 1454.7,665 		"/>
		<polygon class="st1" points="1511.8,996 1626.2,996 1683.3,897 1626.2,798 1511.8,798 1454.7,897 		"/>
		<polygon class="st1" points="1511.8,532 1626.2,532 1683.3,433 1626.2,334 1511.8,334 1454.7,433 		"/>
		<polygon class="st1" points="1019.2,220 904.8,220 847.7,319 904.8,418 1019.2,418 1076.3,319 		"/>
		<polygon class="st1" points="1019.2,220 904.8,220 847.7,319 904.8,418 1019.2,418 1076.3,319 		"/>
		<polygon class="st1" points="1222.2,338 1107.8,338 1050.7,437 1107.8,536 1222.2,536 1279.3,437 		"/>
		<polygon class="st1" points="1019.2,452 904.8,452 847.7,551 904.8,650 1019.2,650 1076.3,551 		"/>
		<polygon class="st1" points="1021.2,684 906.8,684 849.7,783 906.8,882 1021.2,882 1078.3,783 		"/>
		<polygon class="st1" points="1021.2,684 906.8,684 849.7,783 906.8,882 1021.2,882 1078.3,783 		"/>
		<polygon class="st1" points="1224.2,802 1109.8,802 1052.7,901 1109.8,1000 1224.2,1000 1281.3,901 		"/>
		<polygon class="st1" points="1021.2,916 906.8,916 849.7,1015 906.8,1114 1021.2,1114 1078.3,1015 		"/>
		<polygon class="st1" points="1223.2,-362 1108.8,-362 1051.7,-263 1108.8,-164 1223.2,-164 1280.3,-263 		"/>
		<polygon class="st1" points="1223.2,-362 1108.8,-362 1051.7,-263 1108.8,-164 1223.2,-164 1280.3,-263 		"/>
		<polygon class="st1" points="1426.2,-480 1311.8,-480 1254.7,-381 1311.8,-282 1426.2,-282 1483.3,-381 		"/>
		<polygon class="st1" points="1626.2,-358 1511.8,-358 1454.7,-259 1511.8,-160 1626.2,-160 1683.3,-259 		"/>
		<polygon class="st1" points="1426.2,-244 1311.8,-244 1254.7,-145 1311.8,-46 1426.2,-46 1483.3,-145 		"/>
		<polygon class="st1" points="1223.2,-130 1108.8,-130 1051.7,-31 1108.8,68 1223.2,68 1280.3,-31 		"/>
		<polygon class="st1" points="1511.8,300 1626.2,300 1683.3,201 1626.2,102 1511.8,102 1454.7,201 		"/>
		<polygon class="st1" points="1511.8,300 1626.2,300 1683.3,201 1626.2,102 1511.8,102 1454.7,201 		"/>
		<polygon class="st1" points="1308.8,182 1423.2,182 1480.3,83 1423.2,-16 1308.8,-16 1251.7,83 		"/>
		<polygon class="st1" points="1511.8,68 1626.2,68 1683.3,-31 1626.2,-130 1511.8,-130 1454.7,-31 		"/>
		<polygon class="st1" points="1511.8,764 1626.2,764 1683.3,665 1626.2,566 1511.8,566 1454.7,665 		"/>
		<polygon class="st1" points="1511.8,764 1626.2,764 1683.3,665 1626.2,566 1511.8,566 1454.7,665 		"/>
		<polygon class="st1" points="1511.8,996 1626.2,996 1683.3,897 1626.2,798 1511.8,798 1454.7,897 		"/>
		<polygon class="st1" points="1308.8,646 1423.2,646 1480.3,547 1423.2,448 1308.8,448 1251.7,547 		"/>
		<polygon class="st1" points="1511.8,532 1626.2,532 1683.3,433 1626.2,334 1511.8,334 1454.7,433 		"/>
		<polygon class="st1" points="1830.2,-476 1715.8,-476 1658.7,-377 1715.8,-278 1830.2,-278 1887.3,-377 		"/>
		<polygon class="st1" points="1715.8,182 1830.2,182 1887.3,83 1830.2,-16 1715.8,-16 1658.7,83 		"/>
		<polygon class="st1" points="1715.8,182 1830.2,182 1887.3,83 1830.2,-16 1715.8,-16 1658.7,83 		"/>
		<polygon class="st1" points="1715.8,-50 1830.2,-50 1887.3,-149 1830.2,-248 1715.8,-248 1658.7,-149 		"/>
		<polygon class="st1" points="1715.8,646 1830.2,646 1887.3,547 1830.2,448 1715.8,448 1658.7,547 		"/>
		<polygon class="st1" points="1715.8,646 1830.2,646 1887.3,547 1830.2,448 1715.8,448 1658.7,547 		"/>
		<polygon class="st1" points="1715.8,878 1830.2,878 1887.3,779 1830.2,680 1715.8,680 1658.7,779 		"/>
		<polygon class="st1" points="1715.8,414 1830.2,414 1887.3,315 1830.2,216 1715.8,216 1658.7,315 		"/>
		<polygon class="st1" points="2037.2,-594 1922.8,-594 1865.7,-495 1922.8,-396 2037.2,-396 2094.3,-495 		"/>
		<polygon class="st1" points="1922.8,64 2037.2,64 2094.3,-35 2037.2,-134 1922.8,-134 1865.7,-35 		"/>
		<polygon class="st1" points="1922.8,64 2037.2,64 2094.3,-35 2037.2,-134 1922.8,-134 1865.7,-35 		"/>
		<polygon class="st1" points="1922.8,-168 2037.2,-168 2094.3,-267 2037.2,-366 1922.8,-366 1865.7,-267 		"/>
		<polygon class="st1" points="1922.8,528 2037.2,528 2094.3,429 2037.2,330 1922.8,330 1865.7,429 		"/>
		<polygon class="st1" points="1922.8,528 2037.2,528 2094.3,429 2037.2,330 1922.8,330 1865.7,429 		"/>
		<polygon class="st1" points="1922.8,760 2037.2,760 2094.3,661 2037.2,562 1922.8,562 1865.7,661 		"/>
		<polygon class="st1" points="1922.8,296 2037.2,296 2094.3,197 2037.2,98 1922.8,98 1865.7,197 		"/>
		<polygon class="st1" points="1223.2,102 1108.8,102 1051.7,201 1108.8,300 1223.2,300 1280.3,201 		"/>
		<polygon class="st1" points="1223.2,102 1108.8,102 1051.7,201 1108.8,300 1223.2,300 1280.3,201 		"/>
		<polygon class="st1" points="1426.2,220 1311.8,220 1254.7,319 1311.8,418 1426.2,418 1483.3,319 		"/>
		<polygon class="st1" points="1223.2,334 1108.8,334 1051.7,433 1108.8,532 1223.2,532 1280.3,433 		"/>
		<polygon class="st1" points="1225.2,566 1110.8,566 1053.7,665 1110.8,764 1225.2,764 1282.3,665 		"/>
		<polygon class="st1" points="1225.2,566 1110.8,566 1053.7,665 1110.8,764 1225.2,764 1282.3,665 		"/>
		<polygon class="st1" points="1428.2,684 1313.8,684 1256.7,783 1313.8,882 1428.2,882 1485.3,783 		"/>
		<polygon class="st1" points="1225.2,798 1110.8,798 1053.7,897 1110.8,996 1225.2,996 1282.3,897 		"/>
	</g>
</g>
</svg>
