<?xml version="1.0" encoding="utf-8"?>
<!-- Generator: Adobe Illustrator 22.1.0, SVG Export Plug-In . SVG Version: 6.00 Build 0)  -->
<svg version="1.1" id="Layer_1" xmlns="http://www.w3.org/2000/svg" xmlns:xlink="http://www.w3.org/1999/xlink" x="0px" y="0px"
	 viewBox="0 0 82.8 35.4" style="enable-background:new 0 0 82.8 35.4;" xml:space="preserve">
<style type="text/css">
	.st0{fill:#AD0303;}
	.st1{fill:none;}
	.st2{fill:#FFFFFF;}
	.st3{fill:#94FF7F;}
</style>
<rect x="4.5" y="26" width="4.9" height="4.9"/>
<rect x="11.7" y="11.7" width="4.9" height="4.9"/>
<rect x="11.7" y="18.8" width="4.9" height="4.9"/>
<rect x="18.8" y="11.7" width="4.9" height="4.9"/>
<rect x="18.8" y="26" width="4.9" height="4.9"/>
<rect x="26" y="18.8" width="4.9" height="4.9"/>
<rect x="18.8" y="11.7" class="st0" width="4.9" height="4.9"/>
<rect x="11.7" y="11.7" class="st0" width="4.9" height="4.9"/>
<rect x="11.7" y="18.8" class="st0" width="4.9" height="4.9"/>
<rect x="26" y="18.8" class="st0" width="4.9" height="4.9"/>
<rect x="4.5" y="26" class="st0" width="4.9" height="4.9"/>
<rect x="18.8" y="26" class="st0" width="4.9" height="4.9"/>
<path class="st1" d="M2.3,2.3v30.8h30.9V2.3H2.3z M23.7,11.7v4.9h-4.9v-4.9C18.8,11.7,23.7,11.7,23.7,11.7z M11.7,16.6v-4.9h4.9v4.9
	H11.7z M16.6,18.8v4.9h-4.9v-4.9H16.6z M9.4,30.9H4.5V26h4.9V30.9z M23.7,30.9h-4.9V26h4.9V30.9z M30.9,23.7H26v-4.9h4.9V23.7z
	 M30.9,16.6h-3.1l-4.1,4.1v3.1h-3.1l-4.1,4.1V31h-4.9v-3.3l-3.9-3.9H4.5v-4.9h4.9v3.3l3.9,3.9h1.9l3.7-3.7v-3.5h3.5l3.7-3.7v-3.5H31
	v4.9H30.9z"/>
<path class="st2" d="M29.7,9.4h-24C5,9.4,4.5,8.9,4.5,8.3V5.7C4.5,5,5,4.5,5.7,4.5h24.1c0.6,0,1.1,0.5,1.1,1.1v2.6
	C30.9,8.9,30.4,9.4,29.7,9.4z"/>
<path class="st2" d="M34.1,0H1.3C0.6,0,0,0.6,0,1.3v32.8c0,0.7,0.6,1.3,1.3,1.3h32.8c0.7,0,1.3-0.6,1.3-1.3V1.3
	C35.4,0.6,34.8,0,34.1,0z M33.1,31.9c0,0.7-0.5,1.2-1.2,1.3h-0.1H3.5H3.4c-0.7,0-1.2-0.6-1.2-1.3V3.6c0-0.7,0.6-1.3,1.3-1.3h28.3
	c0.7,0,1.3,0.6,1.3,1.3V31.9z"/>
<polygon class="st3" points="30.9,11.7 30.9,16.6 27.8,16.6 23.7,20.6 23.7,23.7 20.6,23.7 16.6,27.8 16.6,30.9 11.7,30.9 
	11.7,27.6 7.8,23.7 4.5,23.7 4.5,18.8 9.4,18.8 9.4,22.1 13.3,26 15.2,26 18.8,22.3 18.8,18.8 22.3,18.8 26,15.2 26,11.7 "/>
<path class="st2" d="M9.4,11.7H5.9c-0.8,0-1.4,0.6-1.4,1.4v3.5h4.9V11.7z"/>
<path class="st2" d="M30.9,26H26v4.9h3.5c0.7,0,1.3-0.6,1.3-1.3V26H30.9z"/>
<g>
	<path class="st2" d="M39.2,7.3c0.4-0.4,1.1-0.7,2-0.7c1,0,1.7,0.3,2.2,0.8c0.4,0.4,0.7,1,0.7,1.5H43c0-0.4-0.1-0.7-0.4-0.9
		c-0.3-0.3-0.7-0.4-1.3-0.4c-0.7,0-1.1,0.1-1.4,0.4c-0.2,0.2-0.3,0.5-0.3,0.8s0.1,0.5,0.2,0.6c0.2,0.2,0.4,0.3,0.8,0.5
		c0.7,0.3,1.5,0.7,2.4,1.1c0.3,0.1,0.5,0.3,0.7,0.5c0.3,0.3,0.5,0.8,0.5,1.2c0,0.6-0.2,1.2-0.7,1.6C43,14.8,42.3,15,41.2,15
		c-1,0-1.8-0.3-2.4-0.8c-0.4-0.4-0.6-1-0.6-1.8h1.1c0,0.6,0.1,1,0.4,1.2c0.3,0.3,0.9,0.5,1.6,0.5c0.7,0,1.1-0.2,1.5-0.5
		c0.3-0.3,0.4-0.5,0.4-0.8s-0.1-0.5-0.3-0.7s-0.4-0.3-0.8-0.5c-0.3-0.2-0.7-0.3-1.2-0.6c-0.6-0.3-1-0.5-1.4-0.6
		c-0.3-0.1-0.5-0.2-0.7-0.4c-0.3-0.3-0.4-0.7-0.4-1.1C38.5,8.2,38.8,7.7,39.2,7.3z"/>
	<path class="st2" d="M46.2,10.1c0.5-0.5,1-0.7,1.7-0.7c0.8,0,1.3,0.2,1.7,0.6c0.3,0.3,0.5,0.8,0.6,1.3h-1c0-0.3-0.2-0.5-0.4-0.7
		s-0.5-0.3-0.8-0.3s-0.7,0.1-0.9,0.4c-0.4,0.4-0.6,0.9-0.6,1.5s0.2,1.1,0.5,1.5c0.3,0.3,0.6,0.4,0.9,0.4c0.4,0,0.8-0.1,1-0.4
		c0.3-0.3,0.4-0.6,0.4-1h1c0,0.7-0.3,1.2-0.7,1.6c-0.4,0.4-1,0.6-1.8,0.6c-0.7,0-1.2-0.2-1.6-0.7c-0.6-0.6-0.8-1.2-0.8-2.1
		C45.4,11.3,45.7,10.6,46.2,10.1z"/>
	<path class="st2" d="M51.6,6.7h0.9v3.7c0.5-0.7,1.1-1,1.7-1c0.7,0,1.1,0.2,1.5,0.5c0.3,0.3,0.5,0.7,0.5,1.1v3.8h-0.9v-3.5
		c0-0.3-0.1-0.6-0.3-0.8s-0.4-0.2-0.7-0.2s-0.7,0.1-0.9,0.4c-0.3,0.3-0.6,0.8-0.8,1.5v2.7h-0.9L51.6,6.7L51.6,6.7z"/>
	<path class="st2" d="M58.2,10c0.4-0.4,1-0.7,1.7-0.7s1.2,0.2,1.7,0.7c0.4,0.4,0.7,1.1,0.7,2h-3.8c0,0.7,0.2,1.1,0.5,1.5
		c0.3,0.3,0.6,0.4,1.1,0.4s0.8-0.1,0.9-0.3c0.2-0.2,0.3-0.5,0.3-0.8h1c-0.1,0.6-0.3,1-0.6,1.3c-0.4,0.4-1,0.6-1.7,0.6
		c-0.8,0-1.4-0.2-1.8-0.7c-0.5-0.5-0.8-1.2-0.8-2S57.7,10.6,58.2,10z M58.9,10.5c-0.2,0.2-0.4,0.5-0.4,0.8h2.7
		c0-0.3-0.1-0.6-0.4-0.8c-0.2-0.2-0.5-0.3-0.9-0.3C59.5,10.2,59.2,10.3,58.9,10.5z"/>
	<path class="st2" d="M67.3,6.7h0.9v8h-0.9V14c-0.3,0.5-0.8,0.8-1.4,0.8c-0.7,0-1.2-0.2-1.5-0.6c-0.6-0.6-0.8-1.3-0.8-2.2
		s0.3-1.7,0.8-2.2c0.4-0.4,0.9-0.6,1.5-0.6c0.7,0,1.2,0.3,1.6,0.8V6.7H67.3z M65,10.5c-0.3,0.3-0.5,0.8-0.5,1.5s0.2,1.2,0.5,1.5
		c0.2,0.2,0.5,0.3,0.8,0.3c0.4,0,0.7-0.1,0.9-0.4c0.3-0.3,0.5-0.8,0.5-1.5s-0.2-1.2-0.6-1.5c-0.3-0.3-0.5-0.4-0.9-0.4
		C65.5,10.2,65.2,10.3,65,10.5z"/>
	<path class="st2" d="M69.5,9.5h0.9V13c0,0.4,0.1,0.7,0.3,0.8c0.2,0.2,0.4,0.2,0.7,0.2c0.4,0,0.8-0.2,1.1-0.5c0.5-0.5,0.7-1,0.7-1.5
		V9.5h0.9v5.3h-0.9v-0.9c-0.5,0.7-1.1,1-1.8,1c-0.7,0-1.1-0.1-1.4-0.4s-0.4-0.6-0.4-1.1L69.5,9.5L69.5,9.5z"/>
	<path class="st2" d="M75.6,6.7h0.9v8h-0.9V6.7z"/>
	<path class="st2" d="M78.7,10c0.4-0.4,1-0.7,1.7-0.7s1.2,0.2,1.7,0.7c0.4,0.4,0.7,1.1,0.7,2H79c0,0.7,0.2,1.1,0.5,1.5
		c0.3,0.3,0.6,0.4,1.1,0.4s0.8-0.1,0.9-0.3c0.2-0.2,0.3-0.5,0.3-0.8h1c-0.1,0.6-0.3,1-0.6,1.3c-0.4,0.4-1,0.6-1.7,0.6
		c-0.8,0-1.4-0.2-1.8-0.7c-0.5-0.5-0.8-1.2-0.8-2S78.2,10.6,78.7,10z M79.4,10.5C79.2,10.7,79,11,79,11.3h2.7c0-0.3-0.1-0.6-0.4-0.8
		c-0.2-0.2-0.5-0.3-0.9-0.3C80,10.2,79.7,10.3,79.4,10.5z"/>
</g>
<g>
	<path class="st3" d="M38.5,17.8h5.2v0.9h-4.1v2.5h3.8v0.9h-3.8V25h4.3v0.9h-5.4V17.8z"/>
	<path class="st3" d="M44.6,25.8l3.2-8.1h0.9l3.2,8.1h-1.1l-1-2.4h-3.1l-1,2.4H44.6z M48.2,19.3L47,22.5h2.4L48.2,19.3z"/>
	<path class="st3" d="M53.6,18.4c0.4-0.4,1.1-0.7,2-0.7c1,0,1.7,0.3,2.2,0.8c0.4,0.4,0.7,1,0.7,1.5h-1.1c0-0.4-0.1-0.7-0.4-0.9
		c-0.3-0.3-0.7-0.4-1.3-0.4c-0.7,0-1.1,0.1-1.4,0.4c-0.2,0.2-0.3,0.5-0.3,0.8s0.1,0.5,0.2,0.6c0.2,0.2,0.4,0.3,0.8,0.5
		c0.7,0.3,1.5,0.7,2.4,1.1c0.3,0.1,0.5,0.3,0.7,0.5c0.3,0.3,0.5,0.8,0.5,1.2c0,0.6-0.2,1.2-0.7,1.6c-0.5,0.5-1.2,0.7-2.3,0.7
		c-1,0-1.8-0.3-2.4-0.8c-0.4-0.4-0.6-1-0.6-1.8h1.1c0,0.6,0.1,1,0.4,1.2c0.3,0.3,0.9,0.5,1.6,0.5c0.7,0,1.1-0.2,1.5-0.5
		c0.3-0.3,0.4-0.5,0.4-0.8s-0.1-0.5-0.3-0.7s-0.4-0.3-0.8-0.5c-0.3-0.2-0.7-0.3-1.2-0.6c-0.6-0.3-1-0.5-1.4-0.6
		c-0.3-0.1-0.5-0.2-0.7-0.4c-0.3-0.3-0.4-0.7-0.4-1.1C52.9,19.3,53.2,18.8,53.6,18.4z"/>
	<path class="st3" d="M59.4,17.8h1.1l2.3,3.7l2.3-3.7h1.1l-2.9,4.5v3.6h-1.1v-3.6L59.4,17.8z"/>
</g>
</svg>
